{"title":"Geordie Shore S12E04 1080P WEB-DL AAC2 0 H 264","uid":14202819,"size":1640593894,"categoryP":"video","categoryS":"hd___tv_shows","magnet":"?xt=urn:btih:82b04a921eac65be9d200a869a880fbf5a743a8b&amp;dn=Geordie+Shore+S12E04+1080P+WEB-DL+AAC2+0+H+264&amp;tr=udp%3A%2F%2Ftracker.leechers-paradise.org%3A6969&amp;tr=udp%3A%2F%2Fzer0day.ch%3A1337&amp;tr=udp%3A%2F%2Fopen.demonii.com%3A1337&amp;tr=udp%3A%2F%2Ftracker.coppersurfer.tk%3A6969&amp;tr=udp%3A%2F%2Fexodus.desync.com%3A6969","seeders":4,"leechers":3,"uploader":"jmanwf","files":1,"time":1459946043,"description":"Description\r\nWith Holly away, Chloe and Charlotte's friendship goes next level. Chantelle's plan to test Scott goes badly wrong and Chloe is quick to take advantage.\r\n\r\n\r\n\r\nVideo\r\nID : 2\r\nFormat : AVC\r\nFormat/Info : Advanced Video Codec\r\nFormat profile :   \r\nFormat settings, CABAC : Yes\r\nFormat settings, ReFrames : 4 frames\r\nCodec ID : avc1\r\nCodec ID/Info : Advanced Video Coding\r\nDuration : 42mn 23s\r\nBit rate : 5 031 Kbps\r\nWidth : 1 920 pixels\r\nHeight : 1 080 pixels\r\nDisplay aspect ratio : 16:9\r\nFrame rate mode : Constant\r\nFrame rate : 25.000 fps\r\nColor space : YUV\r\nChroma subsampling : 4:2:0\r\nBit depth : 8 bits\r\nScan type : Progressive\r\nBits/(Pixel*Frame) : 0.097\r\nStream size : 1.49 GiB (97%)\r\nLanguage : English\r\nEncoded date : UTC 2016-04-06 05:21:37\r\nTagged date : UTC 2016-04-06 05:24:56\r\nColor range : Limited\r\nColor primaries : BT.709\r\nTransfer characteristics : BT.709\r\nMatrix coefficients : BT.709\r\n\r\nAudio\r\nID : 1\r\nFormat : AAC\r\nFormat/Info : Advanced Audio Codec\r\nFormat profile : LC\r\nCodec ID : 40\r\nDuration : 42mn 23s\r\nBit rate mode : Variable\r\nBit rate : 126 Kbps\r\nMaximum bit rate : 194 Kbps\r\nChannel(s) : 2 channels\r\nChannel positions : Front: L R\r\nSampling rate : 48.0 KHz\r\nFrame rate : 46.875 fps (1024 spf)\r\nCompression mode : Lossy\r\nStream size : 38.1 MiB (2%)\r\nLanguage : English\r\nDefault : Yes\r\nAlternate group : 1\r\nEncoded date : UTC 2016-04-06 05:21:36\r\nTagged date : UTC 2016-04-06 05:24:56","torrent":{"xt":"urn:btih:82b04a921eac65be9d200a869a880fbf5a743a8b","amp;dn":"Geordie+Shore+S12E04+1080P+WEB-DL+AAC2+0+H+264","amp;tr":["udp%3A%2F%2Ftracker.leechers-paradise.org%3A6969","udp%3A%2F%2Fzer0day.ch%3A1337","udp%3A%2F%2Fopen.demonii.com%3A1337","udp%3A%2F%2Ftracker.coppersurfer.tk%3A6969","udp%3A%2F%2Fexodus.desync.com%3A6969"],"infoHash":"82b04a921eac65be9d200a869a880fbf5a743a8b","infoHashBuffer":{"type":"Buffer","data":[130,176,74,146,30,172,101,190,157,32,10,134,154,136,15,191,90,116,58,139]},"announce":[],"urlList":[]}}